<svg width="24" height="24" viewBox="0 0 24 24" fill="none" xmlns="http://www.w3.org/2000/svg">
<path fill-rule="evenodd" clip-rule="evenodd" d="M11.9996 11.1117C10.3742 11.1117 2 6.39156 2 6.39156V5.65449C2 4.74121 2.7457 4 3.66618 4H20.333C21.2543 4 22 4.74121 22 5.65449L21.9867 6.48173C21.9867 6.48173 13.7032 11.1117 11.9996 11.1117Z" fill="white"/>
<path fill-rule="evenodd" clip-rule="evenodd" d="M11.9996 13.4062C13.7814 13.4062 21.9867 9.33203 21.9867 9.33203L22 18.4757C22 19.3169 21.2543 19.9996 20.333 19.9996H3.66618C2.74654 19.9996 2 19.3169 2 18.4757L2.01332 9.33203C2.01248 9.33203 10.3742 13.4062 11.9996 13.4062Z" fill="white"/>
</svg>
