<svg width="24" height="24" viewBox="0 0 24 24" fill="none" xmlns="http://www.w3.org/2000/svg">
<path fill-rule="evenodd" clip-rule="evenodd" d="M12.0009 2C9.28508 2 8.94424 2.01187 7.87756 2.06042C6.81297 2.10917 6.08629 2.27771 5.45045 2.525C4.79274 2.78042 4.23481 3.12208 3.67898 3.67813C3.12272 4.23396 2.78105 4.79188 2.5248 5.44938C2.27688 6.08542 2.10813 6.81229 2.06021 7.87646C2.0125 8.94313 2 9.28417 2 12C2 14.7158 2.01208 15.0556 2.06042 16.1223C2.10938 17.1869 2.27792 17.9135 2.52501 18.5494C2.78063 19.2071 3.1223 19.765 3.67835 20.3208C4.23398 20.8771 4.7919 21.2196 5.4492 21.475C6.08546 21.7223 6.81234 21.8908 7.87673 21.9396C8.94341 21.9881 9.28403 22 11.9997 22C14.7158 22 15.0556 21.9881 16.1222 21.9396C17.1868 21.8908 17.9143 21.7223 18.5506 21.475C19.2081 21.2196 19.7652 20.8771 20.3208 20.3208C20.8771 19.765 21.2187 19.2071 21.475 18.5496C21.7208 17.9135 21.8896 17.1867 21.9396 16.1225C21.9875 15.0558 22 14.7158 22 12C22 9.28417 21.9875 8.94333 21.9396 7.87667C21.8896 6.81208 21.7208 6.08542 21.475 5.44958C21.2187 4.79187 20.8771 4.23396 20.3208 3.67813C19.7646 3.12188 19.2083 2.78021 18.55 2.525C17.9125 2.27771 17.1854 2.10917 16.1208 2.06042C15.0541 2.01187 14.7145 2 11.9978 2H12.0009ZM11.1038 3.80208C11.3701 3.80167 11.6672 3.80208 12.0009 3.80208C14.671 3.80208 14.9874 3.81167 16.0418 3.85958C17.0168 3.90417 17.546 4.06708 17.8985 4.20396C18.3652 4.38521 18.6979 4.60188 19.0477 4.95187C19.3977 5.30188 19.6143 5.63521 19.796 6.10188C19.9329 6.45396 20.096 6.98313 20.1404 7.95813C20.1883 9.01229 20.1987 9.32896 20.1987 11.9977C20.1987 14.6665 20.1883 14.9831 20.1404 16.0373C20.0958 17.0123 19.9329 17.5415 19.796 17.8935C19.6148 18.3602 19.3977 18.6925 19.0477 19.0423C18.6977 19.3923 18.3654 19.609 17.8985 19.7902C17.5464 19.9277 17.0168 20.0902 16.0418 20.1348C14.9876 20.1827 14.671 20.1931 12.0009 20.1931C9.3307 20.1931 9.01424 20.1827 7.96006 20.1348C6.98505 20.0898 6.45588 19.9269 6.10317 19.79C5.6365 19.6088 5.30316 19.3921 4.95316 19.0421C4.60315 18.6921 4.38648 18.3596 4.20482 17.8927C4.06794 17.5406 3.90481 17.0115 3.86044 16.0365C3.81252 14.9823 3.80294 14.6656 3.80294 11.9952C3.80294 9.32479 3.81252 9.00979 3.86044 7.95562C3.90502 6.98062 4.06794 6.45146 4.20482 6.09896C4.38607 5.63229 4.60315 5.29896 4.95316 4.94896C5.30316 4.59896 5.6365 4.38229 6.10317 4.20062C6.45567 4.06312 6.98505 3.90062 7.96006 3.85583C8.88257 3.81417 9.24008 3.80167 11.1038 3.79958V3.80208ZM17.3389 5.4625C16.6764 5.4625 16.1389 5.99938 16.1389 6.66208C16.1389 7.32458 16.6764 7.86208 17.3389 7.86208C18.0014 7.86208 18.5389 7.32458 18.5389 6.66208C18.5389 5.99958 18.0014 5.46208 17.3389 5.46208V5.4625ZM12.0009 6.86458C9.16487 6.86458 6.86547 9.16396 6.86547 12C6.86547 14.836 9.16487 17.1344 12.0009 17.1344C14.837 17.1344 17.1356 14.836 17.1356 12C17.1356 9.16396 14.8368 6.86458 12.0007 6.86458H12.0009ZM12.0009 8.66667C13.8418 8.66667 15.3343 10.159 15.3343 12C15.3343 13.8408 13.8418 15.3333 12.0009 15.3333C10.1599 15.3333 8.66757 13.8408 8.66757 12C8.66757 10.159 10.1599 8.66667 12.0009 8.66667Z" fill="white"/>
</svg>
