<svg width="40" height="40" viewBox="0 0 40 40" fill="none" xmlns="http://www.w3.org/2000/svg">
<g id="Instagram">
<path id="Combined Shape" fill-rule="evenodd" clip-rule="evenodd" d="M20 0C8.95431 0 0 8.95431 0 20C0 31.0457 8.95431 40 20 40C31.0457 40 40 31.0457 40 20C40 8.95431 31.0457 0 20 0ZM15.6021 9.40339C16.7399 9.35161 17.1034 9.33894 20.0004 9.33894H19.997C22.8948 9.33894 23.2571 9.35161 24.3948 9.40339C25.5304 9.45539 26.306 9.63517 26.986 9.89895C27.6882 10.1712 28.2815 10.5356 28.8749 11.129C29.4682 11.7219 29.8327 12.317 30.106 13.0185C30.3682 13.6968 30.5482 14.4719 30.6016 15.6075C30.6527 16.7452 30.666 17.1088 30.666 20.0057C30.666 22.9026 30.6527 23.2653 30.6016 24.4031C30.5482 25.5382 30.3682 26.3136 30.106 26.992C29.8327 27.6934 29.4682 28.2885 28.8749 28.8814C28.2822 29.4747 27.688 29.84 26.9866 30.1125C26.308 30.3763 25.532 30.5561 24.3964 30.6081C23.2586 30.6598 22.8962 30.6725 19.999 30.6725C17.1023 30.6725 16.739 30.6598 15.6012 30.6081C14.4658 30.5561 13.6905 30.3763 13.0118 30.1125C12.3107 29.84 11.7156 29.4747 11.1229 28.8814C10.5298 28.2885 10.1654 27.6934 9.89269 26.9918C9.62913 26.3136 9.44935 25.5384 9.39713 24.4029C9.34557 23.2651 9.33268 22.9026 9.33268 20.0057C9.33268 17.1088 9.34602 16.745 9.39691 15.6072C9.44802 14.4721 9.62802 13.6968 9.89247 13.0183C10.1658 12.317 10.5303 11.7219 11.1236 11.129C11.7165 10.5358 12.3116 10.1714 13.0132 9.89895C13.6914 9.63517 14.4665 9.45539 15.6021 9.40339Z" fill="#ABABAB" fill-opacity="0.6"/>
<path id="Combined Shape_2" fill-rule="evenodd" clip-rule="evenodd" d="M19.0433 11.2566C19.2291 11.2563 19.4289 11.2564 19.6446 11.2565L20.0001 11.2566C22.8482 11.2566 23.1857 11.2668 24.3104 11.3179C25.3504 11.3655 25.9149 11.5392 26.2909 11.6852C26.7887 11.8786 27.1436 12.1097 27.5167 12.483C27.89 12.8564 28.1211 13.2119 28.3149 13.7097C28.4609 14.0853 28.6349 14.6497 28.6822 15.6897C28.7334 16.8142 28.7445 17.152 28.7445 19.9987C28.7445 22.8454 28.7334 23.1831 28.6822 24.3076C28.6347 25.3476 28.4609 25.9121 28.3149 26.2876C28.1216 26.7854 27.89 27.1398 27.5167 27.513C27.1433 27.8863 26.7889 28.1174 26.2909 28.3107C25.9153 28.4574 25.3504 28.6307 24.3104 28.6783C23.186 28.7294 22.8482 28.7405 20.0001 28.7405C17.1519 28.7405 16.8143 28.7294 15.6899 28.6783C14.6499 28.6303 14.0854 28.4565 13.7092 28.3105C13.2114 28.1172 12.8559 27.8861 12.4825 27.5127C12.1092 27.1394 11.8781 26.7847 11.6843 26.2867C11.5383 25.9112 11.3643 25.3467 11.3169 24.3067C11.2658 23.1822 11.2556 22.8445 11.2556 19.996C11.2556 17.1475 11.2658 16.8115 11.3169 15.6871C11.3645 14.6471 11.5383 14.0826 11.6843 13.7066C11.8776 13.2088 12.1092 12.8533 12.4825 12.4799C12.8559 12.1066 13.2114 11.8755 13.7092 11.6817C14.0852 11.535 14.6499 11.3617 15.6899 11.3139C16.6739 11.2695 17.0552 11.2561 19.0433 11.2539V11.2566ZM25.6951 13.0213C24.9884 13.0213 24.4151 13.594 24.4151 14.3008C24.4151 15.0075 24.9884 15.5809 25.6951 15.5809C26.4018 15.5809 26.9751 15.0075 26.9751 14.3008C26.9751 13.5942 26.4018 13.0208 25.6951 13.0208V13.0213ZM14.5237 19.9971C14.5237 16.972 16.9763 14.5193 20.0014 14.5192C23.0265 14.5192 25.4785 16.9719 25.4785 19.9971C25.4785 23.0222 23.0267 25.4738 20.0016 25.4738C16.9764 25.4738 14.5237 23.0222 14.5237 19.9971Z" fill="#ABABAB" fill-opacity="0.6"/>
<path id="Shape" fill-rule="evenodd" clip-rule="evenodd" d="M20.0011 16.4414C21.9647 16.4414 23.5567 18.0332 23.5567 19.997C23.5567 21.9606 21.9647 23.5526 20.0011 23.5526C18.0374 23.5526 16.4456 21.9606 16.4456 19.997C16.4456 18.0332 18.0374 16.4414 20.0011 16.4414V16.4414Z" fill="#ABABAB" fill-opacity="0.6"/>
</g>
</svg>
