<svg width="392" height="66" viewBox="0 0 392 66" xmlns="http://www.w3.org/2000/svg">
<path d="M16.6393 65.2027H31.9295V15.5034H48.6588V2.30336H0V15.5034H16.6393V65.2027Z" />
<path d="M90.0259 43.055C90.0259 30.2094 80.9417 21.0846 68.5297 21.0846C55.2182 21.0846 45.8642 30.3866 45.8642 43.498C45.8642 56.9638 55.578 66 68.8894 66C78.873 66 84.9891 62.7222 88.6767 58.204L80.5819 50.0537C77.6138 53.3315 73.9262 54.6604 70.3285 54.749C64.932 54.749 60.7047 52.1799 59.8053 47.2188H89.7561C89.846 46.3329 90.0259 44.2953 90.0259 43.055ZM68.3498 32.0698C72.5771 32.0698 75.4552 34.7275 76.3547 38.9799H59.8952C60.7946 34.6389 64.0326 32.0698 68.3498 32.0698Z" />
<path d="M115.912 66C121.218 66 125.176 64.2282 128.054 60.596L128.234 60.6846V65.2027H141.635V21.8819H127.514V26.4L127.334 26.4886C124.276 22.945 119.869 21.0846 115.192 21.0846C103.859 21.0846 95.135 30.298 95.135 43.5866C95.135 56.9638 103.859 66 115.912 66ZM118.88 53.7745C113.303 53.7745 109.436 49.6993 109.436 43.5866C109.436 37.3852 113.483 33.3101 118.88 33.3101C124.096 33.3101 128.144 37.651 128.144 43.5866C128.144 49.7879 123.917 53.7745 118.88 53.7745Z" />
<path d="M171.919 66C181.093 66 187.569 62.9879 191.526 58.4698L182.892 49.6107C180.374 52.2685 177.495 53.6859 173.538 53.6859C167.422 53.6859 163.105 49.6993 163.105 43.5866C163.105 37.4738 167.332 33.3987 173.448 33.3987C176.686 33.3987 180.104 34.8161 182.172 37.4738L191.257 28.6148C186.4 23.2107 179.024 21.0846 172.279 21.0846C158.248 21.0846 148.894 30.1208 148.894 43.6752C148.894 56.9638 158.608 66 171.919 66Z" />
<path d="M198.044 65.2027H212.075V43.3208C212.075 36.5879 215.313 33.3987 220.259 33.3987C225.206 33.3987 227.635 35.5248 227.635 42.5235V65.2027H241.666V39.0685C241.666 25.4255 234.92 21.0846 225.836 21.0846C220.439 21.0846 215.672 23.0336 212.255 26.843L212.075 26.7544V0H198.044V65.2027Z" />
<path d="M273.604 65.2027H288.445V30.4752H288.715L301.666 53.5973H311.29L324.242 30.5638H324.422V65.2027H339.352V2.30336H324.152L306.613 35.702H306.433L288.715 2.30336H273.604V65.2027Z" />
<path d="M392 43.055C392 30.2094 382.916 21.0846 370.504 21.0846C357.192 21.0846 347.838 30.3866 347.838 43.498C347.838 56.9638 357.552 66 370.864 66C380.847 66 386.963 62.7222 390.651 58.204L382.556 50.0537C379.588 53.3315 375.9 54.6604 372.303 54.749C366.906 54.749 362.679 52.1799 361.779 47.2188H391.73C391.82 46.3329 392 44.2953 392 43.055ZM370.324 32.0698C374.551 32.0698 377.429 34.7275 378.329 38.9799H361.869C362.769 34.6389 366.007 32.0698 370.324 32.0698Z" />
</svg>
