<svg width="225" height="214" viewBox="0 0 225 214" fill="none" xmlns="http://www.w3.org/2000/svg">
<rect width="225" height="214" fill="white"/>
<mask id="mask0" mask-type="alpha" maskUnits="userSpaceOnUse" x="30" y="0" width="165" height="214">
<rect x="30.8828" width="163.235" height="214" rx="81.6177" fill="white"/>
</mask>
<g mask="url(#mask0)">
<path opacity="0.08" fill-rule="evenodd" clip-rule="evenodd" d="M117.981 50.293H105.601V82.5382H105.55V111.089H100.738V93.4801H100.613L94.5485 71.8863L88.4841 93.4801H88.3589V111.089H82.6113V62.6319H73.3267V71.6585L68.0203 76.5661V81.1562H49.1844V94.0502H34.8623V162.667H49.1844V162.667H68.1271V162.667L82.4503 162.667L82.6103 162.667H88.3589V162.667H100.738V162.667H105.55V162.667H130.037V162.667H138.354V162.667L145.393 162.667H154.678L158.682 162.667V162.666H177.626V162.667H190.562V100.268L177.667 90.8575V59.1059H157.33V107.405H154.678V84.666H145.393V107.405H138.354V99.5768H137.449L138.354 99.347L130.038 91.7485L130.037 91.7491V82.5382H117.981V50.293Z" fill="url(#paint0_radial)"/>
<path opacity="0.2" fill-rule="evenodd" clip-rule="evenodd" d="M77.5642 121.756C77.6042 121.495 77.6251 121.227 77.6251 120.953C77.6251 118.312 75.6812 116.17 73.2834 116.17C72.0738 116.17 70.9798 116.715 70.1925 117.594C69.135 117.358 68.0322 117.233 66.8986 117.233C62.3274 117.233 58.2571 119.265 55.6389 122.428C55.0996 122.163 54.5022 122.016 53.8736 122.016C51.89 122.016 50.2171 123.482 49.6983 125.484C49.3345 125.555 48.9758 125.639 48.6226 125.735C47.1106 123.172 44.5363 121.485 41.6148 121.485C38.1202 121.485 35.1224 123.899 33.8452 127.338C31.756 127.42 29.8355 128.208 28.2862 129.484C28.1342 129.466 27.9798 129.457 27.8236 129.457C25.4258 129.457 23.4819 131.599 23.4819 134.24C23.4819 135.419 23.8684 136.497 24.5094 137.331C24.5055 137.452 11.5753 135.91 7.32297 143.57C3.07061 151.231 -4.52997 192.184 11.5753 192.773C27.6806 193.363 171.462 192.773 220.508 192.773C224.598 192.773 227.879 129.134 200.724 133.177C200.724 129.031 197.783 125.623 194.023 125.241C193.49 120.735 189.49 117.233 184.634 117.233C180.731 117.233 177.381 119.495 175.94 122.724C172.935 123.186 170.243 124.536 168.176 126.48C167.401 125.689 166.364 125.205 165.225 125.205C164.063 125.205 163.008 125.708 162.229 126.527C161.951 126.166 161.655 125.818 161.341 125.486C161.058 123.381 159.647 121.677 157.803 121.135C156.512 118.798 154.142 117.233 151.433 117.233C148.313 117.233 145.643 119.311 144.552 122.251C141.739 123.514 139.431 125.62 137.99 128.226C136.969 127.654 135.808 127.331 134.577 127.331C133.163 127.331 131.841 127.758 130.717 128.498C129.346 127.51 127.781 126.75 126.086 126.28C125.608 122.374 122.503 119.359 118.743 119.359C116.772 119.359 114.981 120.188 113.654 121.539C113.312 121.503 112.965 121.485 112.614 121.485C108.16 121.485 104.426 124.431 103.427 128.396C103.339 128.395 103.252 128.394 103.164 128.394C102.677 128.394 102.196 128.417 101.721 128.462C101.024 126.853 99.535 125.74 97.8094 125.737C97.2134 123.879 95.6052 122.548 93.7148 122.548C91.3169 122.548 89.3731 124.689 89.3731 127.331C89.3731 127.355 89.3732 127.378 89.3736 127.401C89.3743 127.456 89.3758 127.51 89.3781 127.564C87.3713 128.097 85.6869 129.512 84.6992 131.404C83.7713 130.15 82.4994 129.203 81.0371 128.73C80.6106 126.074 79.37 123.67 77.5642 121.756Z" fill="url(#paint1_radial)"/>
<path d="M118.478 67.4888C122.727 65.4308 125.098 68.0057 128.814 67.6389C132.809 67.7127 132.319 65.1861 135.432 65.8152C137.034 66.1389 145.385 80.7481 146.532 92.1074C147.82 104.855 136.911 112.955 132.207 126.762C129.225 135.515 133.642 147.922 134.457 151.353C132.909 151.506 125.664 151.144 120.31 148.302C113.618 144.749 98.9693 132.495 85.6889 130.652C73.5563 128.968 62.8356 131.971 48.3703 137.379C57.4141 120.1 77.3881 115.819 88.8506 106.229C100.313 96.6382 110.591 71.3094 118.478 67.4888Z" fill="#655EB0"/>
<path d="M124.294 62.956C124.535 65.2684 124.264 67.1649 123.202 68.2063C124.364 68.8684 127.203 70.1875 129.262 70.1675C131.836 70.1425 134.609 67.5273 133.913 67.5972C133.45 67.6438 132.287 64.7231 131.857 63.598C129.722 63.3452 124.233 62.3711 124.294 62.956Z" fill="#E9A99C"/>
<path d="M134.72 64.1657C134.748 62.893 134.025 59.4075 133.411 57.3529C132.595 54.4588 130.7 52.4673 126.873 52.258C123.046 52.0487 121.755 54.3571 121.493 56.3722C121.047 59.7903 123.615 63.3014 125.125 64.3397C126.635 65.3779 134.686 65.7566 134.72 64.1657Z" fill="#F6B3A6"/>
<path d="M122.606 58.9624C123.35 58.5776 124.273 59.5859 124.593 60.7408L126 60.7969C125.099 59.8324 123.699 57.1506 123.885 55.8655C124.119 54.2591 125.602 53.1205 128.457 53.6242C130.432 53.9726 132.11 53.6012 132.953 52.5777C134.02 51.2831 133.044 49.6006 132.327 48.4856C131.359 46.9805 130.752 47.4571 129.908 48.3335C128.644 49.6482 125.238 49.76 123.294 50.1871C119.967 50.918 119.739 54.5025 119.902 56.0689C120.106 58.0271 121.86 61.4119 122.912 61.8995C122.612 60.9404 121.656 59.4538 122.606 58.9624Z" fill="#64331E"/>
<path fill-rule="evenodd" clip-rule="evenodd" d="M121.283 113.384C125 114.547 127.288 118.024 125.361 121.961C123.433 125.897 112.404 137.342 102.325 146.076C102.069 146.299 101.814 146.477 101.565 146.606C97.8797 150.307 83.277 162.29 81.2502 163.263C79.4669 164.119 79.3296 162.801 79.1844 161.407L79.1802 161.367C81.9284 156.821 87.5464 147.919 90.1179 145.071C91.8076 143.199 95.3592 140.133 98.1336 139.693C98.1327 139.623 98.132 139.553 98.1315 139.482C98.0779 132.237 107.084 118.25 112.023 115.119C114.654 113.45 117.566 112.221 121.283 113.384Z" fill="url(#paint2_linear)"/>
<path d="M101.462 148.155C100.589 147.588 92.6758 145.625 88.6225 145.209C86.1992 145.448 77.6309 159.564 76.7846 161.281C75.9382 162.997 73.2453 162.532 72.5191 163.42C72.174 163.843 72.6382 166.92 72.0444 170.256C71.4507 173.592 72.9605 175.896 73.6053 176.423C75.6501 178.094 76.0447 168.09 78.5861 164.981C84.3995 161.958 102.554 148.863 101.462 148.155Z" fill="#F89A42"/>
<path d="M104.487 109.802C105.174 109.173 107.924 106.966 111.212 104.691C113.653 107.961 121.995 111.585 127.639 111.73C127.676 112.101 126.948 118.821 126.3 121.694C121.265 120.318 118.596 121.752 115.485 123.464C112.688 112.036 108.344 110.826 104.487 109.802Z" fill="#2B1C3A"/>
<path fill-rule="evenodd" clip-rule="evenodd" d="M158.614 59.1505C158.737 59.0488 158.857 58.9434 158.974 58.835C160.491 57.4347 167.388 43.8498 169.176 40.3279C169.4 39.8877 169.543 39.6047 169.587 39.5224C169.899 38.9296 168.955 37.9488 168.006 37.8107C164.833 41.015 154.32 51.8665 152.867 54.0711C152.686 54.3455 152.524 54.6016 152.381 54.8427C147.736 57.0335 136.942 64.4777 133.949 67.4168C130.766 70.543 130.857 75.9115 134.046 79.5654C137.234 83.2193 143.119 83.5622 146.351 80.8987C149.015 78.7031 156.385 65.2288 158.614 59.1505Z" fill="url(#paint3_linear)"/>
<path d="M129.554 69.1674C127.512 69.3692 125.056 68.7267 123.825 68.1459C121.157 69.5802 116.983 73.0362 115.106 79.3089C112.22 88.9592 110.085 103.869 109.808 105.769C111.669 110.268 121.86 111.368 127.36 110.122C128.542 107.898 134.384 98.4243 139.742 93.4465C144.208 89.2975 148.275 82.7701 145.39 75.0948C143.589 70.3009 136.594 67.6914 133.336 67.1548C132.942 67.8961 131.597 68.9655 129.554 69.1674Z" fill="url(#paint4_linear)"/>
<path fill-rule="evenodd" clip-rule="evenodd" d="M125.006 69.175C126.84 72.264 124.717 77.6217 122.069 81.3955C120.667 83.3945 117.096 86.8008 113.719 89.7754C117.156 90.3968 123.637 90.3575 129.15 88.6787C130.128 89.0483 130.689 89.9259 129.927 91.6349C124.599 94.5645 105.168 99.5857 101.269 98.2162C98.3846 97.2028 97.7482 94.4402 98.3707 92.0513C98.5005 91.1345 98.7255 90.1447 99.0092 89.0941C99.8531 85.9695 104.069 76.681 110.821 72.2392C115.856 68.9266 123.172 66.086 125.006 69.175Z" fill="url(#paint5_linear)"/>
<path fill-rule="evenodd" clip-rule="evenodd" d="M114.828 107.685C119.471 107.221 130.238 107.274 133.609 108.105C136.138 108.728 138.71 110.189 139.261 112.067C140.079 114.134 139.307 117.647 138.441 119.088C136.446 122.406 117.983 136.108 115.532 137.289C113.572 138.234 112.977 137.468 112.816 135.926C113.02 135.586 113.243 135.213 113.483 134.812C115.246 131.866 117.93 127.382 120.632 123.442C115.748 125.12 110.934 126.348 108.038 126.066C100.928 125.375 97.6609 118.511 101.725 112.502C104.395 108.555 108.908 108.183 113.115 107.836C113.694 107.788 114.266 107.741 114.828 107.685Z" fill="url(#paint6_linear)"/>
<path d="M136.259 123.065C135.255 122.415 127.75 120.862 123.089 120.386C120.303 120.661 109.382 136.487 108.408 138.456C107.435 140.425 104.995 139.496 104.16 140.515C103.771 140.989 103.854 143.587 103.638 146.653C102.411 150.754 103.728 153.353 104.387 154.07C106.758 156.645 107.556 146.266 110.479 142.7C117.164 139.231 137.513 123.878 136.259 123.065Z" fill="#F89A42"/>
<path d="M169.818 33.6608C169.233 33.9243 167.889 36.8965 167.917 38.062C168.341 38.0202 169.444 38.6867 169.684 39.2922C170.326 38.5996 171.21 37.9513 171.819 37.2087C172.027 36.954 173.493 37.2628 174.205 36.3836C174.918 35.5044 174.623 34.1832 173.79 33.5028C173.12 32.9554 171.067 33.0983 169.818 33.6608Z" fill="#F6B3A6"/>
<path d="M134.955 91.4592C134.424 92.0331 131.064 92.1655 129.72 91.6854C129.932 91.2132 129.39 89.388 128.779 88.8798L128.791 88.8612C129.634 87.5638 129.929 87.1096 131.02 86.6941C132.117 86.2767 132.534 87.0352 133.022 86.9869C134.4 86.8505 135.259 85.7426 135.73 86.9642C136.109 87.9471 136.089 90.2343 134.955 91.4592Z" fill="#F6B3A6"/>
</g>
<defs>
<radialGradient id="paint0_radial" cx="0" cy="0" r="1" gradientUnits="userSpaceOnUse" gradientTransform="translate(112.676 50.293) rotate(90) scale(89.4589 123.949)">
<stop stop-color="#485E80"/>
<stop offset="1" stop-color="#495F80" stop-opacity="0"/>
</radialGradient>
<radialGradient id="paint1_radial" cx="0" cy="0" r="1" gradientUnits="userSpaceOnUse" gradientTransform="translate(112.498 72.8595) rotate(89.9991) scale(119.994 525.417)">
<stop stop-color="#655EB0" stop-opacity="0"/>
<stop offset="0.522963" stop-color="#837DBF"/>
<stop offset="1" stop-color="#9F9ACD" stop-opacity="0"/>
</radialGradient>
<linearGradient id="paint2_linear" x1="117.994" y1="110.115" x2="104.778" y2="151.604" gradientUnits="userSpaceOnUse">
<stop stop-color="#624B76"/>
<stop offset="1" stop-color="#381C51"/>
</linearGradient>
<linearGradient id="paint3_linear" x1="166.054" y1="39.3563" x2="142.823" y2="77.5288" gradientUnits="userSpaceOnUse">
<stop stop-color="#3290C4"/>
<stop offset="1" stop-color="#106CA0"/>
</linearGradient>
<linearGradient id="paint4_linear" x1="130.74" y1="71.6256" x2="137.306" y2="106.093" gradientUnits="userSpaceOnUse">
<stop stop-color="#3290C4"/>
<stop offset="1" stop-color="#106CA0"/>
</linearGradient>
<linearGradient id="paint5_linear" x1="126.254" y1="69.2434" x2="116.157" y2="89.9104" gradientUnits="userSpaceOnUse">
<stop stop-color="#3290C4"/>
<stop offset="1" stop-color="#106CA0"/>
</linearGradient>
<linearGradient id="paint6_linear" x1="126.616" y1="106.485" x2="125.462" y2="126.486" gradientUnits="userSpaceOnUse">
<stop stop-color="#624B76"/>
<stop offset="1" stop-color="#381C51"/>
</linearGradient>
</defs>
</svg>
