<svg width="24" height="24" viewBox="0 0 24 24" fill="none" xmlns="http://www.w3.org/2000/svg">
<path d="M0.00140218 10.8424C0.00337806 7.04717 0.00436599 5.14958 0.743663 3.70002C1.39397 2.42494 2.43111 1.38827 3.70643 0.738591C5.15629 0 7.05375 0 10.8487 0L13.1638 0C16.9587 0 18.8562 0 20.3053 0.738591C21.5799 1.38827 22.616 2.42494 23.265 3.70002C24.0028 5.14958 24.0018 7.04717 23.9998 10.8424L23.9986 13.1576C23.9966 16.9528 23.9956 18.8504 23.2563 20.3C22.606 21.5751 21.5689 22.6117 20.2936 23.2614C18.8437 24 16.9462 24 13.1513 24H10.8362C7.04126 24 5.14379 24 3.69471 23.2614C2.42006 22.6117 1.384 21.5751 0.73502 20.3C-0.002767 18.8504 -0.00177911 16.9528 0.00019677 13.1576L0.00140218 10.8424Z" fill="#F89A42"/>
<path d="M9.90701 14.5721H10.969L10.97 12.6972H12.8775L12.8781 11.6579H10.9705L10.9715 9.77293H9.90951L9.90853 11.6579H8.00103L8.00048 12.6972H9.90799L9.90701 14.5721Z" fill="white"/>
<path d="M14.8032 15H15.9993L16.0029 8H15.0337L12.9605 9.48763L13.5271 10.3639L14.8061 9.4163L14.8032 15Z" fill="white"/>
</svg>
